<svg width="131" height="129" viewBox="0 0 131 129" fill="none" xmlns="http://www.w3.org/2000/svg">
<g filter="url(#filter0_d)">
<path d="M122.02 4.07227H8.07035C5.83166 4.07227 4 5.90392 4 8.14261V65.1315C4 67.3702 5.83166 69.2039 8.07035 69.2039H9.57434H12.1203H16.7198H23.7412H24.309H105.777H106.347H113.348H120.998H122.018C124.256 69.2039 126.088 67.3702 126.088 65.1315V8.14261C126.09 5.90392 124.258 4.07227 122.02 4.07227Z" fill="#CCD1D9"/>
<path d="M122.02 0H8.07035C5.83166 0 4 1.83166 4 4.07035V61.0572C4 63.2959 5.83166 65.1276 8.07035 65.1276H9.57434H12.1203H16.7198H23.7412H24.309H105.777H106.347H113.348H120.998H122.018C124.256 65.1276 126.088 63.2939 126.088 61.0572V4.07035C126.09 1.83166 124.258 0 122.02 0Z" fill="#E6E9ED"/>
<path d="M32.4717 50.8828H26.3662C25.2408 50.8828 24.3311 51.7946 24.3311 52.918V59.0235C24.3311 60.1469 25.2408 61.0587 26.3662 61.0587H32.4494C33.5748 61.0587 34.4845 60.1469 34.4845 59.0235L34.4744 56.9639C34.4967 56.8438 34.5069 56.7238 34.5069 56.6037V52.918C34.5069 51.7946 33.5972 50.8828 32.4717 50.8828Z" fill="#CCD1D9"/>
<path d="M18.2257 50.8828H12.1201C10.9947 50.8828 10.085 51.7946 10.085 52.918V59.0235C10.085 60.1469 10.9947 61.0587 12.1201 61.0587H18.2257C19.3511 61.0587 20.2608 60.1469 20.2608 59.0235V52.918C20.2608 51.7946 19.3511 50.8828 18.2257 50.8828Z" fill="#CCD1D9"/>
<path d="M103.703 22.3887H97.5977C96.4722 22.3887 95.5625 23.3004 95.5625 24.4238V30.5294C95.5625 31.6528 96.4722 32.5645 97.5977 32.5645H103.703C104.829 32.5645 105.738 31.6528 105.738 30.5294V24.4238C105.738 23.3004 104.829 22.3887 103.703 22.3887Z" fill="#CCD1D9"/>
<path d="M103.703 36.6348H97.5977C96.4722 36.6348 95.5625 37.5465 95.5625 38.6699V44.7755C95.5625 45.8989 96.4722 46.8106 97.5977 46.8106H103.703C104.829 46.8106 105.738 45.8989 105.738 44.7755V38.6699C105.738 37.5465 104.829 36.6348 103.703 36.6348Z" fill="#CCD1D9"/>
<path d="M117.949 50.8828H111.844C110.718 50.8828 109.809 51.7946 109.809 52.918V59.0235C109.809 60.1469 110.718 61.0587 111.844 61.0587H117.949C119.075 61.0587 119.984 60.1469 119.984 59.0235V52.918C119.984 51.7946 119.075 50.8828 117.949 50.8828Z" fill="#CCD1D9"/>
<path d="M103.703 50.8828H97.5977C96.4722 50.8828 95.5625 51.7946 95.5625 52.918V56.4592C95.5625 56.5325 95.5666 56.6057 95.5747 56.679C95.5869 56.7889 95.6032 56.8988 95.6032 57.0087V59.0235C95.6032 60.1469 96.5129 61.0587 97.6384 61.0587H103.703C104.829 61.0587 105.738 60.1469 105.738 59.0235V52.918C105.738 51.7946 104.829 50.8828 103.703 50.8828Z" fill="#CCD1D9"/>
<path d="M114.897 18.3165C117.707 18.3165 119.984 16.0385 119.984 13.2286C119.984 10.4186 117.707 8.14062 114.897 8.14062C112.087 8.14062 109.809 10.4186 109.809 13.2286C109.809 16.0385 112.087 18.3165 114.897 18.3165Z" fill="#CCD1D9"/>
<path d="M15.1734 18.3165C17.9834 18.3165 20.2613 16.0385 20.2613 13.2286C20.2613 10.4186 17.9834 8.14062 15.1734 8.14062C12.3634 8.14062 10.0854 10.4186 10.0854 13.2286C10.0854 16.0385 12.3634 18.3165 15.1734 18.3165Z" fill="#CCD1D9"/>
<path d="M29.419 18.3165C32.229 18.3165 34.5069 16.0385 34.5069 13.2286C34.5069 10.4186 32.229 8.14062 29.419 8.14062C26.609 8.14062 24.3311 10.4186 24.3311 13.2286C24.3311 16.0385 26.609 18.3165 29.419 18.3165Z" fill="#CCD1D9"/>
<path d="M89.457 50.8828H40.6128C39.4874 50.8828 38.5776 51.7946 38.5776 52.918V59.0235C38.5776 60.1469 39.4874 61.0587 40.6128 61.0587H89.457C90.5824 61.0587 91.4921 60.1469 91.4921 59.0235V52.918C91.4921 51.7946 90.5824 50.8828 89.457 50.8828Z" fill="#CCD1D9"/>
<path d="M12.1201 32.5645H18.2257C19.3511 32.5645 20.2608 31.6528 20.2608 30.5294V24.4238C20.2608 23.3004 19.3511 22.3887 18.2257 22.3887H12.1201C10.9947 22.3887 10.085 23.3004 10.085 24.4238V30.5294C10.085 31.6528 10.9947 32.5645 12.1201 32.5645Z" fill="#CCD1D9"/>
<path d="M32.4717 22.3887H26.3662C25.2408 22.3887 24.3311 23.3004 24.3311 24.4238V30.5294C24.3311 31.6528 25.2408 32.5645 26.3662 32.5645H32.4717C33.5972 32.5645 34.5069 31.6528 34.5069 30.5294V24.4238C34.5069 23.3004 33.5972 22.3887 32.4717 22.3887Z" fill="#CCD1D9"/>
<path d="M32.4719 36.6348H12.1201C10.9947 36.6348 10.085 37.5465 10.085 38.6699V44.7755C10.085 45.8989 10.9947 46.8106 12.1201 46.8106H32.4719C33.5973 46.8106 34.507 45.8989 34.507 44.7755V38.6699C34.507 37.5465 33.5973 36.6348 32.4719 36.6348Z" fill="#CCD1D9"/>
<path d="M43.6656 18.3165C46.4756 18.3165 48.7535 16.0385 48.7535 13.2286C48.7535 10.4186 46.4756 8.14062 43.6656 8.14062C40.8556 8.14062 38.5776 10.4186 38.5776 13.2286C38.5776 16.0385 40.8556 18.3165 43.6656 18.3165Z" fill="#CCD1D9"/>
<path d="M40.6128 32.5645H46.7183C47.8438 32.5645 48.7535 31.6528 48.7535 30.5294V24.4238C48.7535 23.3004 47.8438 22.3887 46.7183 22.3887H40.6128C39.4874 22.3887 38.5776 23.3004 38.5776 24.4238V30.5294C38.5776 31.6528 39.4874 32.5645 40.6128 32.5645Z" fill="#CCD1D9"/>
<path d="M40.6128 46.8106H46.7183C47.8438 46.8106 48.7535 45.8989 48.7535 44.7755V38.6699C48.7535 37.5465 47.8438 36.6348 46.7183 36.6348H40.6128C39.4874 36.6348 38.5776 37.5465 38.5776 38.6699V44.7755C38.5776 45.9009 39.4874 46.8106 40.6128 46.8106Z" fill="#CCD1D9"/>
<path d="M57.9117 18.3165C60.7217 18.3165 62.9996 16.0385 62.9996 13.2286C62.9996 10.4186 60.7217 8.14062 57.9117 8.14062C55.1017 8.14062 52.8237 10.4186 52.8237 13.2286C52.8237 16.0385 55.1017 18.3165 57.9117 18.3165Z" fill="#CCD1D9"/>
<path d="M72.1578 18.3165C74.9677 18.3165 77.2457 16.0385 77.2457 13.2286C77.2457 10.4186 74.9677 8.14062 72.1578 8.14062C69.3478 8.14062 67.0698 10.4186 67.0698 13.2286C67.0698 16.0385 69.3478 18.3165 72.1578 18.3165Z" fill="#CCD1D9"/>
<path d="M69.105 32.5645H75.2105C76.336 32.5645 77.2457 31.6528 77.2457 30.5294V24.4238C77.2457 23.3004 76.336 22.3887 75.2105 22.3887H69.105C67.9795 22.3887 67.0698 23.3004 67.0698 24.4238V30.5294C67.0698 31.6528 67.9795 32.5645 69.105 32.5645Z" fill="#CCD1D9"/>
<path d="M54.8589 32.5645H60.9644C62.0899 32.5645 62.9996 31.6528 62.9996 30.5294V24.4238C62.9996 23.3004 62.0899 22.3887 60.9644 22.3887H54.8589C53.7335 22.3887 52.8237 23.3004 52.8237 24.4238V30.5294C52.8237 31.6528 53.7335 32.5645 54.8589 32.5645Z" fill="#CCD1D9"/>
<path d="M54.8589 46.8106H60.9644C62.0899 46.8106 62.9996 45.8989 62.9996 44.7755V38.6699C62.9996 37.5465 62.0899 36.6348 60.9644 36.6348H54.8589C53.7335 36.6348 52.8237 37.5465 52.8237 38.6699V44.7755C52.8237 45.9009 53.7335 46.8106 54.8589 46.8106Z" fill="#CCD1D9"/>
<path d="M69.105 46.8106H75.2105C76.336 46.8106 77.2457 45.8989 77.2457 44.7755V38.6699C77.2457 37.5465 76.336 36.6348 75.2105 36.6348H69.105C67.9795 36.6348 67.0698 37.5465 67.0698 38.6699V44.7755C67.0698 45.9009 67.9795 46.8106 69.105 46.8106Z" fill="#CCD1D9"/>
<path d="M89.4566 22.3887H83.3511C82.2256 22.3887 81.3159 23.3004 81.3159 24.4238V30.5294C81.3159 31.6528 82.2256 32.5645 83.3511 32.5645H89.4566C90.5821 32.5645 91.4918 31.6528 91.4918 30.5294V24.4238C91.4918 23.3004 90.5821 22.3887 89.4566 22.3887Z" fill="#CCD1D9"/>
<path d="M89.4566 36.6348H83.3511C82.2256 36.6348 81.3159 37.5465 81.3159 38.6699V44.7755C81.3159 45.8989 82.2256 46.8106 83.3511 46.8106H89.4566C90.5821 46.8106 91.4918 45.8989 91.4918 44.7755V38.6699C91.4918 37.5465 90.5821 36.6348 89.4566 36.6348Z" fill="#CCD1D9"/>
<path d="M117.949 22.3887H111.844C110.718 22.3887 109.809 23.3004 109.809 24.4238V44.7756C109.809 45.899 110.718 46.8108 111.844 46.8108H117.949C119.075 46.8108 119.984 45.899 119.984 44.7756V24.4238C119.984 23.3004 119.075 22.3887 117.949 22.3887Z" fill="#CCD1D9"/>
<path d="M100.65 18.3165C103.46 18.3165 105.738 16.0385 105.738 13.2286C105.738 10.4186 103.46 8.14062 100.65 8.14062C97.8404 8.14062 95.5625 10.4186 95.5625 13.2286C95.5625 16.0385 97.8404 18.3165 100.65 18.3165Z" fill="#CCD1D9"/>
<path d="M86.4039 18.3165C89.2138 18.3165 91.4918 16.0385 91.4918 13.2286C91.4918 10.4186 89.2138 8.14062 86.4039 8.14062C83.5939 8.14062 81.3159 10.4186 81.3159 13.2286C81.3159 16.0385 83.5939 18.3165 86.4039 18.3165Z" fill="#CCD1D9"/>
<path d="M32.4722 48.8457H26.3667C25.2413 48.8457 24.3315 49.7575 24.3315 50.8809V56.9864C24.3315 58.1098 25.2413 59.0216 26.3667 59.0216H32.4499C33.5753 59.0216 34.485 58.1098 34.485 56.9864L34.4748 54.9268C34.4972 54.8067 34.5074 54.6867 34.5074 54.5666V50.8809C34.5074 49.7575 33.5977 48.8457 32.4722 48.8457Z" fill="white"/>
<path d="M18.2257 48.8457H12.1201C10.9947 48.8457 10.085 49.7575 10.085 50.8809V56.9864C10.085 58.1098 10.9947 59.0216 12.1201 59.0216H18.2257C19.3511 59.0216 20.2608 58.1098 20.2608 56.9864V50.8809C20.2608 49.7575 19.3511 48.8457 18.2257 48.8457Z" fill="white"/>
<path d="M103.703 20.3516H97.5977C96.4722 20.3516 95.5625 21.2633 95.5625 22.3867V28.4923C95.5625 29.6157 96.4722 30.5274 97.5977 30.5274H103.703C104.829 30.5274 105.738 29.6157 105.738 28.4923V22.3867C105.738 21.2633 104.829 20.3516 103.703 20.3516Z" fill="white"/>
<path d="M103.703 34.5996H97.5977C96.4722 34.5996 95.5625 35.5114 95.5625 36.6348V42.7403C95.5625 43.8637 96.4722 44.7755 97.5977 44.7755H103.703C104.829 44.7755 105.738 43.8637 105.738 42.7403V36.6348C105.738 35.5114 104.829 34.5996 103.703 34.5996Z" fill="white"/>
<path d="M117.949 48.8457H111.844C110.718 48.8457 109.809 49.7575 109.809 50.8809V56.9864C109.809 58.1098 110.718 59.0216 111.844 59.0216H117.949C119.075 59.0216 119.984 58.1098 119.984 56.9864V50.8809C119.984 49.7575 119.075 48.8457 117.949 48.8457Z" fill="white"/>
<path d="M103.703 48.8457H97.5977C96.4722 48.8457 95.5625 49.7575 95.5625 50.8809V54.4221C95.5625 54.4953 95.5666 54.5686 95.5747 54.6419C95.5869 54.7518 95.6032 54.8617 95.6032 54.9716V56.9864C95.6032 58.1098 96.5129 59.0216 97.6384 59.0216H103.703C104.829 59.0216 105.738 58.1098 105.738 56.9864V50.8809C105.738 49.7575 104.829 48.8457 103.703 48.8457Z" fill="white"/>
<path d="M114.897 16.2813C117.707 16.2813 119.984 14.0034 119.984 11.1934C119.984 8.38341 117.707 6.10547 114.897 6.10547C112.087 6.10547 109.809 8.38341 109.809 11.1934C109.809 14.0034 112.087 16.2813 114.897 16.2813Z" fill="white"/>
<path d="M15.1729 16.2813C17.9829 16.2813 20.2608 14.0034 20.2608 11.1934C20.2608 8.38341 17.9829 6.10547 15.1729 6.10547C12.3629 6.10547 10.085 8.38341 10.085 11.1934C10.085 14.0034 12.3629 16.2813 15.1729 16.2813Z" fill="white"/>
<path d="M29.4195 16.2813C32.2295 16.2813 34.5074 14.0034 34.5074 11.1934C34.5074 8.38341 32.2295 6.10547 29.4195 6.10547C26.6095 6.10547 24.3315 8.38341 24.3315 11.1934C24.3315 14.0034 26.6095 16.2813 29.4195 16.2813Z" fill="white"/>
<path d="M89.457 48.8457H40.6128C39.4874 48.8457 38.5776 49.7575 38.5776 50.8809V56.9864C38.5776 58.1098 39.4874 59.0216 40.6128 59.0216H89.457C90.5824 59.0216 91.4921 58.1098 91.4921 56.9864V50.8809C91.4921 49.7575 90.5824 48.8457 89.457 48.8457Z" fill="white"/>
<path d="M12.1201 30.5274H18.2257C19.3511 30.5274 20.2608 29.6157 20.2608 28.4923V22.3867C20.2608 21.2633 19.3511 20.3516 18.2257 20.3516H12.1201C10.9947 20.3516 10.085 21.2633 10.085 22.3867V28.4923C10.085 29.6177 10.9947 30.5274 12.1201 30.5274Z" fill="white"/>
<path d="M32.4722 20.3516H26.3667C25.2413 20.3516 24.3315 21.2633 24.3315 22.3867V28.4923C24.3315 29.6157 25.2413 30.5274 26.3667 30.5274H32.4722C33.5977 30.5274 34.5074 29.6157 34.5074 28.4923V22.3867C34.5074 21.2633 33.5977 20.3516 32.4722 20.3516Z" fill="white"/>
<path d="M32.4719 34.5996H12.1201C10.9947 34.5996 10.085 35.5114 10.085 36.6348V42.7403C10.085 43.8637 10.9947 44.7755 12.1201 44.7755H32.4719C33.5973 44.7755 34.507 43.8637 34.507 42.7403V36.6348C34.507 35.5114 33.5973 34.5996 32.4719 34.5996Z" fill="white"/>
<path d="M43.6656 16.2813C46.4756 16.2813 48.7535 14.0034 48.7535 11.1934C48.7535 8.38341 46.4756 6.10547 43.6656 6.10547C40.8556 6.10547 38.5776 8.38341 38.5776 11.1934C38.5776 14.0034 40.8556 16.2813 43.6656 16.2813Z" fill="white"/>
<path d="M40.6128 30.5274H46.7183C47.8438 30.5274 48.7535 29.6157 48.7535 28.4923V22.3867C48.7535 21.2633 47.8438 20.3516 46.7183 20.3516H40.6128C39.4874 20.3516 38.5776 21.2633 38.5776 22.3867V28.4923C38.5776 29.6177 39.4874 30.5274 40.6128 30.5274Z" fill="white"/>
<path d="M40.6128 44.7755H46.7183C47.8438 44.7755 48.7535 43.8637 48.7535 42.7403V36.6348C48.7535 35.5114 47.8438 34.5996 46.7183 34.5996H40.6128C39.4874 34.5996 38.5776 35.5114 38.5776 36.6348V42.7403C38.5776 43.8637 39.4874 44.7755 40.6128 44.7755Z" fill="white"/>
<path d="M57.9117 16.2813C60.7217 16.2813 62.9996 14.0034 62.9996 11.1934C62.9996 8.38341 60.7217 6.10547 57.9117 6.10547C55.1017 6.10547 52.8237 8.38341 52.8237 11.1934C52.8237 14.0034 55.1017 16.2813 57.9117 16.2813Z" fill="white"/>
<path d="M72.1578 16.2813C74.9677 16.2813 77.2457 14.0034 77.2457 11.1934C77.2457 8.38341 74.9677 6.10547 72.1578 6.10547C69.3478 6.10547 67.0698 8.38341 67.0698 11.1934C67.0698 14.0034 69.3478 16.2813 72.1578 16.2813Z" fill="white"/>
<path d="M69.105 30.5274H75.2105C76.336 30.5274 77.2457 29.6157 77.2457 28.4923V22.3867C77.2457 21.2633 76.336 20.3516 75.2105 20.3516H69.105C67.9795 20.3516 67.0698 21.2633 67.0698 22.3867V28.4923C67.0698 29.6177 67.9795 30.5274 69.105 30.5274Z" fill="white"/>
<path d="M54.8589 30.5274H60.9644C62.0899 30.5274 62.9996 29.6157 62.9996 28.4923V22.3867C62.9996 21.2633 62.0899 20.3516 60.9644 20.3516H54.8589C53.7335 20.3516 52.8237 21.2633 52.8237 22.3867V28.4923C52.8237 29.6177 53.7335 30.5274 54.8589 30.5274Z" fill="white"/>
<path d="M54.8589 44.7755H60.9644C62.0899 44.7755 62.9996 43.8637 62.9996 42.7403V36.6348C62.9996 35.5114 62.0899 34.5996 60.9644 34.5996H54.8589C53.7335 34.5996 52.8237 35.5114 52.8237 36.6348V42.7403C52.8237 43.8637 53.7335 44.7755 54.8589 44.7755Z" fill="white"/>
<path d="M69.105 44.7755H75.2105C76.336 44.7755 77.2457 43.8637 77.2457 42.7403V36.6348C77.2457 35.5114 76.336 34.5996 75.2105 34.5996H69.105C67.9795 34.5996 67.0698 35.5114 67.0698 36.6348V42.7403C67.0698 43.8637 67.9795 44.7755 69.105 44.7755Z" fill="white"/>
<path d="M89.4571 20.3516H83.3516C82.2261 20.3516 81.3164 21.2633 81.3164 22.3867V28.4923C81.3164 29.6157 82.2261 30.5274 83.3516 30.5274H89.4571C90.5826 30.5274 91.4923 29.6157 91.4923 28.4923V22.3867C91.4923 21.2633 90.5826 20.3516 89.4571 20.3516Z" fill="white"/>
<path d="M89.4571 34.5996H83.3516C82.2261 34.5996 81.3164 35.5114 81.3164 36.6348V42.7403C81.3164 43.8637 82.2261 44.7755 83.3516 44.7755H89.4571C90.5826 44.7755 91.4923 43.8637 91.4923 42.7403V36.6348C91.4923 35.5114 90.5826 34.5996 89.4571 34.5996Z" fill="white"/>
<rect x="65.0449" y="96.416" width="14.2462" height="10.9391" fill="#EAC6BB"/>
<path d="M117.949 20.3516H111.844C110.718 20.3516 109.809 21.2633 109.809 22.3867V42.7385C109.809 43.8619 110.718 44.7736 111.844 44.7736H117.949C119.075 44.7736 119.984 43.8619 119.984 42.7385V22.3867C119.984 21.2633 119.075 20.3516 117.949 20.3516Z" fill="white"/>
<path d="M100.65 16.2813C103.46 16.2813 105.738 14.0034 105.738 11.1934C105.738 8.38341 103.46 6.10547 100.65 6.10547C97.8404 6.10547 95.5625 8.38341 95.5625 11.1934C95.5625 14.0034 97.8404 16.2813 100.65 16.2813Z" fill="white"/>
<path d="M86.4043 16.2813C89.2143 16.2813 91.4923 14.0034 91.4923 11.1934C91.4923 8.38341 89.2143 6.10547 86.4043 6.10547C83.5944 6.10547 81.3164 8.38341 81.3164 11.1934C81.3164 14.0034 83.5944 16.2813 86.4043 16.2813Z" fill="white"/>
<path d="M80.2785 106.338C81.3978 106.338 82.3136 107.254 82.3136 108.373V112.445C82.3136 113.565 81.3978 114.481 80.2785 114.481H63.9971C62.8777 114.481 61.9619 113.565 61.9619 112.445V108.373C61.9619 107.254 62.8777 106.338 63.9971 106.338H80.2785Z" fill="#E6E9ED"/>
<path d="M82.3439 112.443H61.9922C60.8729 112.443 59.957 113.359 59.957 114.479V118.551V120.586H61.9922H82.3439H84.3791V118.551V114.479C84.3791 113.359 83.4633 112.443 82.3439 112.443Z" fill="#656D78"/>
<path d="M80.0322 75.0031C80.0322 72.8095 81.6923 71.032 83.7397 71.032H83.8221C85.8661 71.032 87.5248 72.8023 87.5296 74.992C87.5469 82.1559 87.5359 82.859 87.5258 93.5588C87.5201 99.5667 82.9719 104.433 77.3637 104.433H65.3229C61.6384 104.433 58.2415 102.295 56.4462 98.8478L45.7109 78.2227L46.8324 77.2924C49.1549 75.1579 52.6481 75.4205 54.6687 77.88L57.6731 81.5377L57.6904 56.3754C57.6918 54.1828 59.3519 52.4062 61.3983 52.4062H61.3993C63.4472 52.4062 65.1073 54.1852 65.1073 56.3788V71.6071C65.1562 69.46 66.7967 67.7385 68.8124 67.7385H68.8991C70.947 67.7385 72.6071 69.5166 72.6071 71.7101V72.9888C72.6071 70.7947 74.2668 69.0172 76.3161 69.0172H76.3247C78.3721 69.0172 80.0322 70.7947 80.0322 72.9888V75.0031Z" fill="#EAC6BB"/>
<path d="M65.0449 76.4464V71.3584C65.0449 70.2391 65.8081 69.196 66.1897 68.8145V73.9024C66.1897 75.2252 65.4265 76.1496 65.0449 76.4464Z" fill="#D3B1A9"/>
<path d="M72.4224 76.5743V72.5039C72.4224 71.6084 73.1008 70.774 73.4399 70.4688V74.5391C73.4399 75.5974 72.7616 76.3368 72.4224 76.5743Z" fill="#D3B1A9"/>
<path d="M79.7998 77.083V74.0303C79.7998 73.3587 80.4782 72.7329 80.8174 72.5039V75.5567C80.8174 76.3504 80.139 76.905 79.7998 77.083Z" fill="#D3B1A9"/>
</g>
<defs>
<filter id="filter0_d" x="0" y="0" width="130.088" height="128.586" filterUnits="userSpaceOnUse" color-interpolation-filters="sRGB">
<feFlood flood-opacity="0" result="BackgroundImageFix"/>
<feColorMatrix in="SourceAlpha" type="matrix" values="0 0 0 0 0 0 0 0 0 0 0 0 0 0 0 0 0 0 127 0"/>
<feOffset dy="4"/>
<feGaussianBlur stdDeviation="2"/>
<feColorMatrix type="matrix" values="0 0 0 0 0 0 0 0 0 0 0 0 0 0 0 0 0 0 0.1 0"/>
<feBlend mode="normal" in2="BackgroundImageFix" result="effect1_dropShadow"/>
<feBlend mode="normal" in="SourceGraphic" in2="effect1_dropShadow" result="shape"/>
</filter>
</defs>
</svg>
